<svg width="23" height="23" viewBox="0 0 23 23" fill="none" xmlns="http://www.w3.org/2000/svg">
<g clip-path="url(#clip0_1_17)">
<path d="M8.96454e-05 7.84439L0.00749397 7.84262C0.00571632 7.80056 8.96454e-05 7.75998 8.96454e-05 7.71495C-0.000709534 6.43644 0.39889 5.18977 1.14279 4.14996C1.8867 3.11015 2.93755 2.32941 4.14784 1.91733C5.35813 1.50525 6.66707 1.48253 7.89092 1.85236C9.11478 2.22219 10.1921 2.96599 10.9716 3.97936C10.974 3.9785 10.9763 3.97781 10.9787 3.97729C11.0392 4.06034 11.1187 4.12768 11.2105 4.17368C11.3023 4.21968 11.4039 4.243 11.5066 4.24166C11.6093 4.24033 11.7102 4.21439 11.8008 4.16602C11.8914 4.11765 11.9691 4.04826 12.0274 3.96367L12.0377 3.96604C12.8189 2.95557 13.8966 2.21486 15.1199 1.84773C16.3432 1.4806 17.6507 1.50547 18.8591 1.91882C20.0676 2.33218 21.1164 3.11331 21.8586 4.15273C22.6008 5.19215 22.9991 6.43776 22.9977 7.71495C22.9977 7.7585 22.9924 7.79848 22.9924 7.84054L23.001 7.84439C23.001 7.84439 23.001 7.99251 22.9714 8.26295C22.9399 8.59947 22.8804 8.93277 22.7936 9.25942C22.3173 11.3166 20.7385 15.2685 15.4892 18.7745C12.4554 20.8122 11.7184 21.3643 11.525 21.401C11.5158 21.4028 11.5108 21.4108 11.5004 21.4108C11.49 21.4108 11.4832 21.401 11.4725 21.3981C11.2652 21.3501 10.5054 20.7846 7.51539 18.7745C2.50015 15.4234 0.834232 11.6653 0.279419 9.5435C0.145157 9.10546 0.0603046 8.65378 0.0264492 8.19689C0.00156784 7.97147 8.96454e-05 7.84439 8.96454e-05 7.84439ZM11.4986 4.77412C11.5161 4.74449 11.5365 4.71487 11.554 4.68317C11.5365 4.71339 11.5161 4.74272 11.4986 4.77412Z" fill="#FF5245"/>
<path d="M13.7122 13.1887C15.3139 7.19687 13.2943 4.62986 12.2312 3.7427C12.7594 3.11991 13.4065 2.60865 14.1346 2.23881C16.0601 1.81937 18.7506 2.32619 20.4909 7.25108C20.7871 8.25821 20.9227 10.7873 20.6366 13.894C19.2359 15.8241 17.4905 17.4788 15.4884 18.7745C12.4545 20.8122 11.7175 21.3643 11.5241 21.401C11.5149 21.4028 11.5099 21.4108 11.4995 21.4108C11.4891 21.4108 11.4823 21.401 11.4717 21.3981C11.3917 21.3723 11.3159 21.3351 11.2465 21.2876C11.857 19.5775 12.7016 16.964 13.7122 13.1887Z" fill="url(#paint0_linear_1_17)"/>
</g>
<defs>
<linearGradient id="paint0_linear_1_17" x1="10.8264" y1="2.21879" x2="21.5679" y2="8.48804" gradientUnits="userSpaceOnUse">
<stop stop-color="#FF7471"/>
<stop offset="1" stop-color="#FF5245"/>
</linearGradient>
<clipPath id="clip0_1_17">
<rect width="23" height="23" fill="white" transform="matrix(-1 0 0 1 23 0)"/>
</clipPath>
</defs>
</svg>
