<svg width="42" height="43" viewBox="0 0 42 43" fill="none" xmlns="http://www.w3.org/2000/svg">
<path d="M20.9371 0L0 14.2489V28.6242L21.0629 43L42 28.6242V14.2489L20.9371 0ZM22.6818 4.94113L37.0818 14.6301L30.7755 19.3379L22.7031 13.9941L22.6818 4.94113ZM19.2552 5.00412L19.2969 13.9941L11.225 19.3379L4.91872 14.6301L19.2552 5.00412ZM3.15315 18.447L7.94555 21.2452L3.15315 24.8078V18.447ZM19.2127 37.5287L4.91872 27.9876L11.3513 23.5351L19.171 29.0059L19.2127 37.5287ZM14.8825 21.6274L20.9371 16.9201L27.1171 21.1183L21.0634 25.8246L14.8825 21.6274ZM22.8711 37.5287L22.8294 29.0059L30.6482 23.5351L37.0813 27.9876L22.8711 37.5287ZM38.8473 24.8078L34.0535 21.2452L38.8473 18.447V24.8078Z" fill="black"/>
</svg>
